# AST/ASF file generated using VICON BodyLanguage
# -----------------------------------------------
:version 1.10
:name VICON
:units
  mass 1.0
  length 0.45
  angle deg
:documentation
   .ast/.asf automatically generated from VICON data using
   VICON BodyBuilder and BodyLanguage model FoxedUp or BRILLIANT.MOD
:root
   order TX TY TZ RX RY RZ
   axis XYZ
   position 0 0 0  
   orientation 0 0 0 
:bonedata
  begin
     id 1 
     name lhipjoint
     direction 0.541323 -0.757556 0.364798 
     length 2.47576 
     axis 0 0 0  XYZ
  end
  begin
     id 2 
     name lfemur
     direction 0.34202 -0.939693 0  
     length 7.46493  
     axis 0 0 20  XYZ
    dof rx ry rz
    limits (-160.0 20.0)
           (-70.0 70.0)
           (-60.0 70.0)
  end
  begin
     id 3 
     name ltibia
     direction 0.34202 -0.939693 0   
     length 7.73805   
     axis 0 0 20   XYZ
    dof rx
    limits (-10.0 170.0)
  end
  begin
     id 4 
     name lfoot
     direction 0.107174 -0.294458 0.949636   
     length 2.25864   
     axis -90 7.62852e-016 20   XYZ
    dof rx rz
    limits (-45.0 90.0)
           (-70.0 20.0)
  end
  begin
     id 5 
     name ltoes
     direction 1.53606e-011 -4.21934e-011 1   
     length 1.12451   
     axis -90 7.62852e-016 20   XYZ
    dof rx
    limits (-90.0 20.0)
  end
  begin
     id 6 
     name rhipjoint
     direction -0.524745 -0.766967 0.36933   
     length 2.44538  
     axis 0 0 0  XYZ 
  end
  begin
     id 7 
     name rfemur
     direction -0.34202 -0.939693 0   
     length 7.61604   
     axis 0 0 -20   XYZ
    dof rx ry rz
    limits (-160.0 20.0)
           (-70.0 70.0)
           (-70.0 60.0)
  end
  begin
     id 8 
     name rtibia
     direction -0.34202 -0.939693 0   
     length 7.61056   
     axis 0 0 -20   XYZ
    dof rx
    limits (-10.0 170.0)
 end
 begin
     id 9 
     name rfoot
     direction -0.12616 -0.346623 0.929482   
     length 2.46372  
     axis -90 -7.62852e-016 -20   XYZ
    dof rx rz
    limits (-45.0 90.0)
           (-20.0 70.0)
  end
  begin
     id 10 
     name rtoes
     direction -1.53531e-011 -4.22004e-011 1   
     length 1.21611   
     axis -90 -7.62852e-016 -20   XYZ
    dof rx
    limits (-90.0 20.0)
  end
  begin
     id 11 
     name lowerback
     direction -0.000778023 0.997293 -0.0735223   
     length 2.06139   
     axis 0 0 0   XYZ
    dof rx ry rz
    limits (-20.0 45.0)
           (-30.0 30.0)
           (-30.0 30.0)
  end
  begin
     id 12 
     name upperback
     direction 0.0222598 0.999722 -0.0078355   
     length 2.06383   
     axis 0 0 0   XYZ
    dof rx ry rz
    limits (-20.0 45.0)
           (-30.0 30.0)
           (-30.0 30.0)
  end
  begin
     id 13 
     name thorax
     direction 0.0219654 0.999405 0.0265994   
     length 2.07163   
     axis 0 0 0   XYZ
    dof rx ry rz
    limits (-20.0 45.0)
           (-30.0 30.0)
           (-30.0 30.0)
  end
  begin
     id 14 
     name lowerneck
     direction 0.0213282 0.988147 0.15202   
     length 1.75969   
     axis 0 0 0   XYZ
    dof rx ry rz
    limits (-20.0 45.0)
           (-30.0 30.0)
           (-30.0 30.0)
  end
  begin
     id 15 
     name upperneck
     direction -0.0546456 0.982624 -0.177379   
     length 1.79244   
     axis 0 0 0   XYZ
    dof rx ry rz
    limits (-20.0 45.0)
           (-30.0 30.0)
           (-30.0 30.0)
  end
  begin
     id 16
     name head
     direction -0.0199987 0.996855 -0.076686  
     length 1.80555  
     axis 0 0 0   XYZ
    dof rx ry rz
    limits (-20.0 45.0)
           (-30.0 30.0)
           (-30.0 30.0)
  end
  begin
     id 17 
     name lclavicle
     direction 0.929565 0.363219 -0.063096  
     length 3.55722  
     axis 0 0 0   XYZ
    dof ry rz
    limits (-20.0 10.0)
           (0.0 20.0)
  end
  begin
     id 18 
     name lhumerus
     direction 1 -4.48993e-011 -2.36203e-027   
     length 4.92785   
     axis 180 -30 -90   XYZ
    dof rx ry rz
    limits (-60.0 90.0)
           (-90.0 90.0)
           (-90.0 90.0)
  end
  begin
     id 19
     name lradius
     direction 1 -4.48947e-011 2.02997e-027   
     length 3.44052   
     axis 180 -30 -90   XYZ
    dof rx
    limits (-10.0 170.0)
  end
  begin
     id 20
     name lwrist
     direction 1 -4.48962e-011 1.45991e-027   
     length 1.72026   
     axis 1.49639e-024 90 90   XYZ
    dof ry
    limits (-180.0 0.0)
 end
  begin
     id 21 
     name lhand
     direction 1 -4.48984e-011 2.91906e-027   
     length 0.654326   
     axis -1.863e-015 90 90   XYZ
    dof rx rz
    limits (-90.0 90.0)
           (-45.0 45.0)
  end
  begin
     id 22 
     name lfingers
     direction 1 -4.48961e-011 5.83968e-027   
     length 0.527534   
     axis -3.72598e-015 90 90   XYZ
    dof rx
    limits (0.0 90.0)
  end
  begin
     id 23
     name lthumb
     direction 0.707107 -6.34963e-011 0.707107   
     length 0.757437   
     axis -90 45 -6.68868e-015   XYZ
    dof rx rz
    limits (-45.0 45.0)
           (-45.0 45.0)
  end
  begin
     id 24 
     name rclavicle
     direction -0.902944 0.422599 -0.0781198   
     length 3.54432  
     axis 0 0 0   XYZ 
    dof ry rz
    limits (-10.0 20.0)
           (-20.0 0.0)
  end
  begin
     id 25 
     name rhumerus
     direction -1 -4.48953e-011 -4.75835e-028  
     length 5.09181   
     axis 180 30 90   XYZ
    dof rx ry rz
    limits (-90.0 60.0)
           (-90.0 90.0)
           (-90.0 90.0)
  end
  begin
     id 26 
     name rradius
     direction -1 -4.48986e-011 -3.25889e-027   
     length 3.49865   
     axis 180 30 90   XYZ
    dof rx
    limits (-10.0 170.0)
  end
  begin
     id 27 
     name rwrist
     direction -1 -4.48963e-011 1.45989e-027   
     length 1.74933   
     axis 1.49639e-024 -90 -90   XYZ
    dof ry
    limits (-180.0 0.0)
  end
  begin
     id 28
     name rhand
     direction -1 -4.49003e-011 2.91844e-027   
     length 0.66641   
     axis -1.863e-015 -90 -90   XYZ
    dof rx rz
    limits (-90.0 90.0)
           (-45.0 45.0)
  end
  begin
     id 29
     name rfingers
     direction -1 -4.48973e-011 5.83886e-027   
     length 0.537277   
     axis -3.72598e-015 -90 -90   XYZ
    dof rx
    limits (0.0 90.0)
  end
  begin
     id 30
     name rthumb
     direction -0.707107 -6.34976e-011 0.707107   
     length 0.771425   
     axis -90 -45 6.68868e-015   XYZ
    dof rx rz
    limits (-45.0 45.0)
           (-45.0 45.0)
  end
:hierarchy
  begin
    root lhipjoint rhipjoint lowerback
    lhipjoint lfemur
    lfemur ltibia
    ltibia lfoot
    lfoot ltoes
    rhipjoint rfemur
    rfemur rtibia
    rtibia rfoot
    rfoot rtoes
    lowerback upperback
    upperback thorax
    thorax lowerneck lclavicle rclavicle
    lowerneck upperneck
    upperneck head
    lclavicle lhumerus
    lhumerus lradius
    lradius lwrist
    lwrist lhand lthumb
    lhand lfingers
    rclavicle rhumerus
    rhumerus rradius
    rradius rwrist
    rwrist rhand rthumb
    rhand rfingers
  end

#!OML:ASF H:\LiuWeirdWalks\Patient Classification 1\Patient 1\Session 1\male.ASF
:FULLY-SPECIFIED
:DEGREES
97
root -0.77779 17.5976 -29.6738 7.16384 -2.97733 -5.07561
lowerback 5.31276 -4.2792 2.57185
upperback -0.510864 -5.37578 5.21364
thorax -3.23573 -2.68535 4.39156
lowerneck -15.6047 4.65259 11.4858
upperneck 27.6011 7.17185 -12.8366
head 12.6567 2.79982 -5.83262
rclavicle -1.00386e-014 -1.11319e-014
rhumerus -34.8399 -4.02994 -78.399
rradius 30.6283
rwrist -8.2766
rhand -14.3359 -1.16331
rfingers 7.12502
rthumb 11.8052 -30.8106
lclavicle -1.00386e-014 -1.11319e-014
lhumerus -33.0983 -0.136723 85.2547
lradius 37.1559
lwrist 10.421
lhand -11.7585 -0.157458
lfingers 7.12502
lthumb 14.2897 29.3309
rfemur -13.5664 2.25944 26.0978
rtibia 33.789
rfoot -21.7913 -18.2434
rtoes -3.44208
lfemur -21.9976 3.11706 -8.36358
ltibia 51.5572
lfoot -9.76428 17.4744
ltoes -17.7214
98
root -0.803666 17.5938 -29.6514 7.10356 -2.79533 -5.2784
lowerback 5.54255 -4.37489 2.79562
upperback -0.463971 -5.47224 5.36195
thorax -3.31752 -2.73563 4.44881
lowerneck -15.5315 4.79854 11.5179
upperneck 27.4644 7.42233 -13.0026
head 12.6357 2.89802 -5.85776
rclavicle -5.81445e-014 -3.97569e-015
rhumerus -34.8356 -3.66241 -78.3727
rradius 30.5699
rwrist -8.23339
rhand -14.3406 -1.18033
rfingers 7.12502
rthumb 11.8007 -30.8279
lclavicle -5.81445e-014 -3.97569e-015
lhumerus -33.1263 -0.124944 85.3265
lradius 37.4623
lwrist 10.3109
lhand -11.7249 -0.115162
lfingers 7.12502
lthumb 14.3221 29.3709
rfemur -13.2622 2.13068 26.4441
rtibia 33.5265
rfoot -21.7333 -18.3177
rtoes -3.35493
lfemur -23.1068 3.12702 -7.92482
ltibia 53.4236
lfoot -8.79472 16.6418
ltoes -17.7811
99
root -0.827106 17.5906 -29.6254 7.02231 -2.62982 -5.4334
lowerback 5.75859 -4.42456 3.00787
upperback -0.406162 -5.50951 5.46072
thorax -3.3872 -2.75646 4.4547
lowerneck -15.4684 4.87619 11.5347
upperneck 27.3552 7.56399 -13.1214
head 12.6078 2.95168 -5.88013
rclavicle -1.37857e-013 5.40694e-014
rhumerus -34.8917 -3.39744 -78.3335
rradius 30.541
rwrist -8.22534
rhand -14.3304 -1.18644
rfingers 7.12502
rthumb 11.8105 -30.8334
lclavicle -1.37857e-013 5.40694e-014
lhumerus -33.1371 -0.275164 85.4174
lradius 37.7714
lwrist 10.2684
lhand -11.6847 -0.0761821
lfingers 7.12502
lthumb 14.3608 29.4071
rfemur -12.9289 1.95047 26.7202
rtibia 33.2689
rfoot -21.6784 -18.341
rtoes -3.26638
lfemur -24.1837 3.13802 -7.57105
ltibia 55.2309
lfoot -7.92883 15.824
ltoes -17.8427
100
root -0.84848 17.5874 -29.596 6.93022 -2.48549 -5.56619
lowerback 5.95192 -4.39773 3.2398
upperback -0.33533 -5.44597 5.49948
thorax -3.44336 -2.72759 4.37578
lowerneck -15.4614 4.84358 11.5022
upperneck 27.2886 7.52217 -13.1262
head 12.5713 2.93011 -5.87922
rclavicle -1.25036e-013 2.46493e-014
rhumerus -35.0204 -3.34465 -78.2687
rradius 30.5372
rwrist -8.23448
rhand -14.3375 -1.20732
rfingers 7.12502
rthumb 11.8036 -30.8547
lclavicle -1.25036e-013 2.46493e-014
lhumerus -33.1025 -0.69441 85.539
lradius 38.0653
lwrist 10.3029
lhand -11.6265 -0.0236499
lfingers 7.12502
lthumb 14.4169 29.4556
rfemur -12.5775 1.74992 26.958
rtibia 33.0171
rfoot -21.6188 -18.3398
rtoes -3.18112
lfemur -25.2207 3.16312 -7.27618
ltibia 56.9585
lfoot -7.26691 15.081
ltoes -17.9591
101
root -0.867922 17.584 -29.5641 6.82808 -2.36876 -5.71272
lowerback 6.14573 -4.30733 3.51661
upperback -0.251626 -5.29501 5.49967
thorax -3.49767 -2.656 4.22295
lowerneck -15.4751 4.72195 11.4299
upperneck 27.2038 7.33237 -13.0468
head 12.5019 2.84786 -5.85979
rclavicle -5.74488e-014 3.97569e-014
rhumerus -35.2094 -3.43127 -78.1939
rradius 30.5673
rwrist -8.29311
rhand -14.3483 -1.23298
rfingers 7.12502
rthumb 11.7933 -30.8809
lclavicle -5.74488e-014 3.97569e-014
lhumerus -33.0264 -1.31891 85.6816
lradius 38.3443
lwrist 10.3859
lhand -11.5599 0.00876083
lfingers 7.12502
lthumb 14.4811 29.4834
rfemur -12.2128 1.56272 27.2003
rtibia 32.7732
rfoot -21.5494 -18.3287
rtoes -3.07293
lfemur -26.216 3.21522 -7.00066
ltibia 58.5949
lfoot -6.8279 14.4472
ltoes -17.9994
102
root -0.885655 17.5805 -29.5296 6.7325 -2.26986 -5.85103
lowerback 6.32522 -4.20892 3.7995
upperback -0.173407 -5.13289 5.49393
thorax -3.54971 -2.57904 4.05777
lowerneck -15.4618 4.60363 11.3936
upperneck 27.0749 7.14343 -12.9922
head 12.4126 2.76788 -5.8542
rclavicle 4.67144e-014 -7.87187e-014
rhumerus -35.4086 -3.51027 -78.1186
rradius 30.5802
rwrist -8.35193
rhand -14.355 -1.26244
rfingers 7.12502
rthumb 11.7868 -30.9108
lclavicle 4.67144e-014 -7.87187e-014
lhumerus -32.9649 -1.95647 85.825
lradius 38.6206
lwrist 10.508
lhand -11.5116 -0.0225256
lfingers 7.12502
lthumb 14.5276 29.4488
rfemur -11.8546 1.39751 27.4253
rtibia 32.5393
rfoot -21.4703 -18.3223
rtoes -2.95275
lfemur -27.1806 3.2886 -6.77002
ltibia 60.1231
lfoot -6.62147 13.9343
ltoes -18.0043
